<mxfile host="app.diagrams.net" agent="Mozilla/5.0 (Windows NT 10.0; Win64; x64) AppleWebKit/537.36 (KHTML, like Gecko) Chrome/128.0.0.0 Safari/537.36 Edg/128.0.0.0" version="24.7.8">
  <diagram name="Page-1" id="d4KBUE_Dpr1EcGJDDZKU">
    <mxGraphModel dx="2632" dy="2026" grid="1" gridSize="10" guides="1" tooltips="1" connect="1" arrows="1" fold="1" page="1" pageScale="1" pageWidth="850" pageHeight="1100" math="0" shadow="0">
      <root>
        <mxCell id="0" />
        <mxCell id="1" parent="0" />
        <mxCell id="-ujorZfPfKvrBxWsnz2l-1" value="&lt;font style=&quot;font-size: 36px;&quot;&gt;Mattermost Desktop Notification Flow Chart&lt;/font&gt;" style="text;html=1;align=center;verticalAlign=middle;whiteSpace=wrap;rounded=0;fillColor=none;fontStyle=1;fontColor=#666666;" parent="1" vertex="1">
          <mxGeometry x="150" y="-1060" width="560" height="30" as="geometry" />
        </mxCell>
        <mxCell id="-ujorZfPfKvrBxWsnz2l-36" style="edgeStyle=orthogonalEdgeStyle;rounded=0;orthogonalLoop=1;jettySize=auto;html=1;entryX=0.5;entryY=0;entryDx=0;entryDy=0;" parent="1" source="-ujorZfPfKvrBxWsnz2l-5" target="-ujorZfPfKvrBxWsnz2l-8" edge="1">
          <mxGeometry relative="1" as="geometry" />
        </mxCell>
        <mxCell id="-ujorZfPfKvrBxWsnz2l-41" value="No" style="edgeLabel;html=1;align=center;verticalAlign=middle;resizable=0;points=[];" parent="-ujorZfPfKvrBxWsnz2l-36" vertex="1" connectable="0">
          <mxGeometry x="-0.2188" relative="1" as="geometry">
            <mxPoint as="offset" />
          </mxGeometry>
        </mxCell>
        <mxCell id="-ujorZfPfKvrBxWsnz2l-5" value="" style="rhombus;whiteSpace=wrap;html=1;strokeColor=#3CAADE;" parent="1" vertex="1">
          <mxGeometry x="130" y="-870" width="140" height="80" as="geometry" />
        </mxCell>
        <mxCell id="-ujorZfPfKvrBxWsnz2l-6" value="" style="group;rounded=1;glass=0;" parent="1" vertex="1" connectable="0">
          <mxGeometry x="40" y="-972" width="320" height="62" as="geometry" />
        </mxCell>
        <mxCell id="-ujorZfPfKvrBxWsnz2l-2" value="" style="rounded=0;whiteSpace=wrap;html=1;fontColor=#858585;strokeColor=#666666;fillColor=#666666;" parent="-ujorZfPfKvrBxWsnz2l-6" vertex="1">
          <mxGeometry y="2" width="320" height="60" as="geometry" />
        </mxCell>
        <mxCell id="-ujorZfPfKvrBxWsnz2l-3" value="Message is posted" style="text;html=1;align=center;verticalAlign=middle;whiteSpace=wrap;rounded=0;fontColor=#ffffff;" parent="-ujorZfPfKvrBxWsnz2l-6" vertex="1">
          <mxGeometry x="94" width="130" height="30" as="geometry" />
        </mxCell>
        <mxCell id="-ujorZfPfKvrBxWsnz2l-4" value="Should a desktop notification be triggered?" style="text;html=1;align=center;verticalAlign=middle;whiteSpace=wrap;rounded=0;fontColor=#FFFFFF;fontStyle=1" parent="-ujorZfPfKvrBxWsnz2l-6" vertex="1">
          <mxGeometry x="10" y="29" width="300" height="30" as="geometry" />
        </mxCell>
        <mxCell id="-ujorZfPfKvrBxWsnz2l-7" value="Is the user in&lt;br&gt;&lt;b&gt;Do Not Disturb&lt;/b&gt;?" style="text;html=1;align=center;verticalAlign=middle;whiteSpace=wrap;rounded=0;" parent="1" vertex="1">
          <mxGeometry x="145" y="-846" width="110" height="30" as="geometry" />
        </mxCell>
        <mxCell id="-ujorZfPfKvrBxWsnz2l-37" style="edgeStyle=orthogonalEdgeStyle;rounded=0;orthogonalLoop=1;jettySize=auto;html=1;entryX=0.5;entryY=0;entryDx=0;entryDy=0;" parent="1" source="-ujorZfPfKvrBxWsnz2l-8" target="-ujorZfPfKvrBxWsnz2l-10" edge="1">
          <mxGeometry relative="1" as="geometry" />
        </mxCell>
        <mxCell id="-ujorZfPfKvrBxWsnz2l-40" value="No" style="edgeLabel;html=1;align=center;verticalAlign=middle;resizable=0;points=[];" parent="-ujorZfPfKvrBxWsnz2l-37" vertex="1" connectable="0">
          <mxGeometry x="-0.2766" relative="1" as="geometry">
            <mxPoint as="offset" />
          </mxGeometry>
        </mxCell>
        <mxCell id="KyfEQ4CnolOL-9VV9dGR-78" style="edgeStyle=orthogonalEdgeStyle;rounded=0;orthogonalLoop=1;jettySize=auto;html=1;entryX=0.5;entryY=0;entryDx=0;entryDy=0;" edge="1" parent="1" source="-ujorZfPfKvrBxWsnz2l-8" target="KyfEQ4CnolOL-9VV9dGR-74">
          <mxGeometry relative="1" as="geometry" />
        </mxCell>
        <mxCell id="KyfEQ4CnolOL-9VV9dGR-116" value="Yes" style="edgeLabel;html=1;align=center;verticalAlign=middle;resizable=0;points=[];" vertex="1" connectable="0" parent="KyfEQ4CnolOL-9VV9dGR-78">
          <mxGeometry x="-0.9366" y="1" relative="1" as="geometry">
            <mxPoint as="offset" />
          </mxGeometry>
        </mxCell>
        <mxCell id="-ujorZfPfKvrBxWsnz2l-8" value="" style="rhombus;whiteSpace=wrap;html=1;strokeColor=#047D7E;" parent="1" vertex="1">
          <mxGeometry x="130" y="-741" width="140" height="80" as="geometry" />
        </mxCell>
        <mxCell id="-ujorZfPfKvrBxWsnz2l-9" value="Is the &lt;b&gt;channel muted&lt;/b&gt;?" style="text;html=1;align=center;verticalAlign=middle;whiteSpace=wrap;rounded=0;" parent="1" vertex="1">
          <mxGeometry x="146" y="-715" width="110" height="30" as="geometry" />
        </mxCell>
        <mxCell id="-ujorZfPfKvrBxWsnz2l-39" style="edgeStyle=orthogonalEdgeStyle;rounded=0;orthogonalLoop=1;jettySize=auto;html=1;exitX=0.5;exitY=1;exitDx=0;exitDy=0;" parent="1" source="-ujorZfPfKvrBxWsnz2l-10" edge="1">
          <mxGeometry relative="1" as="geometry">
            <mxPoint x="200" y="-470" as="targetPoint" />
            <mxPoint x="200" y="-490" as="sourcePoint" />
          </mxGeometry>
        </mxCell>
        <mxCell id="KyfEQ4CnolOL-9VV9dGR-113" value="No" style="edgeLabel;html=1;align=center;verticalAlign=middle;resizable=0;points=[];" vertex="1" connectable="0" parent="-ujorZfPfKvrBxWsnz2l-39">
          <mxGeometry x="-0.2214" y="2" relative="1" as="geometry">
            <mxPoint as="offset" />
          </mxGeometry>
        </mxCell>
        <mxCell id="KyfEQ4CnolOL-9VV9dGR-79" style="edgeStyle=orthogonalEdgeStyle;rounded=0;orthogonalLoop=1;jettySize=auto;html=1;exitX=1;exitY=0.5;exitDx=0;exitDy=0;" edge="1" parent="1" source="-ujorZfPfKvrBxWsnz2l-10">
          <mxGeometry relative="1" as="geometry">
            <mxPoint x="450" y="-250" as="targetPoint" />
            <mxPoint x="270" y="-530" as="sourcePoint" />
            <Array as="points">
              <mxPoint x="370" y="-570" />
              <mxPoint x="370" y="-280" />
              <mxPoint x="450" y="-280" />
            </Array>
          </mxGeometry>
        </mxCell>
        <mxCell id="KyfEQ4CnolOL-9VV9dGR-114" value="Yes" style="edgeLabel;html=1;align=center;verticalAlign=middle;resizable=0;points=[];" vertex="1" connectable="0" parent="KyfEQ4CnolOL-9VV9dGR-79">
          <mxGeometry x="-0.8111" y="-2" relative="1" as="geometry">
            <mxPoint as="offset" />
          </mxGeometry>
        </mxCell>
        <mxCell id="-ujorZfPfKvrBxWsnz2l-10" value="" style="rhombus;whiteSpace=wrap;html=1;strokeColor=#1462C2;" parent="1" vertex="1">
          <mxGeometry x="130" y="-610" width="140" height="80" as="geometry" />
        </mxCell>
        <mxCell id="-ujorZfPfKvrBxWsnz2l-11" value="Is it a &lt;b&gt;Direct Message&lt;/b&gt;?" style="text;html=1;align=center;verticalAlign=middle;whiteSpace=wrap;rounded=0;" parent="1" vertex="1">
          <mxGeometry x="146" y="-585" width="110" height="30" as="geometry" />
        </mxCell>
        <mxCell id="-ujorZfPfKvrBxWsnz2l-12" value="" style="group;rounded=1;glass=0;" parent="1" vertex="1" connectable="0">
          <mxGeometry x="80" y="-470" width="330" height="60" as="geometry" />
        </mxCell>
        <mxCell id="-ujorZfPfKvrBxWsnz2l-32" style="edgeStyle=orthogonalEdgeStyle;rounded=0;orthogonalLoop=1;jettySize=auto;html=1;" parent="-ujorZfPfKvrBxWsnz2l-12" source="-ujorZfPfKvrBxWsnz2l-13" edge="1">
          <mxGeometry relative="1" as="geometry">
            <mxPoint x="50" y="110" as="targetPoint" />
            <Array as="points">
              <mxPoint x="119" y="90" />
              <mxPoint x="50" y="90" />
              <mxPoint x="50" y="110" />
            </Array>
          </mxGeometry>
        </mxCell>
        <mxCell id="-ujorZfPfKvrBxWsnz2l-13" value="" style="rounded=0;whiteSpace=wrap;html=1;strokeColor=#82b366;fillColor=#00693B;" parent="-ujorZfPfKvrBxWsnz2l-12" vertex="1">
          <mxGeometry y="1.935483870967742" width="237.1875" height="58.064516129032256" as="geometry" />
        </mxCell>
        <mxCell id="-ujorZfPfKvrBxWsnz2l-14" value="What is the users&lt;b&gt; channel notification preference&lt;/b&gt; for when to send desktop notifications?" style="text;html=1;align=center;verticalAlign=middle;whiteSpace=wrap;rounded=0;fontColor=#ffffff;" parent="-ujorZfPfKvrBxWsnz2l-12" vertex="1">
          <mxGeometry x="23.59" y="15.48" width="190" height="29.03" as="geometry" />
        </mxCell>
        <mxCell id="-ujorZfPfKvrBxWsnz2l-34" style="edgeStyle=orthogonalEdgeStyle;rounded=0;orthogonalLoop=1;jettySize=auto;html=1;entryX=0.5;entryY=0;entryDx=0;entryDy=0;" parent="-ujorZfPfKvrBxWsnz2l-12" target="-ujorZfPfKvrBxWsnz2l-27" edge="1">
          <mxGeometry relative="1" as="geometry">
            <Array as="points">
              <mxPoint x="119" y="90" />
              <mxPoint x="367" y="90" />
            </Array>
            <mxPoint x="118.60139860139861" y="70" as="sourcePoint" />
            <mxPoint x="367.00699300699307" y="120" as="targetPoint" />
          </mxGeometry>
        </mxCell>
        <mxCell id="-ujorZfPfKvrBxWsnz2l-17" value="" style="group;rounded=1;glass=0;" parent="1" vertex="1" connectable="0">
          <mxGeometry x="-80" y="-360" width="180" height="120" as="geometry" />
        </mxCell>
        <mxCell id="-ujorZfPfKvrBxWsnz2l-18" value="" style="rounded=0;whiteSpace=wrap;html=1;strokeColor=#82b366;fillColor=#00693B;" parent="-ujorZfPfKvrBxWsnz2l-17" vertex="1">
          <mxGeometry y="1.935483870967742" width="100.62500000000001" height="58.064516129032256" as="geometry" />
        </mxCell>
        <mxCell id="-ujorZfPfKvrBxWsnz2l-19" value="Never" style="text;html=1;align=center;verticalAlign=middle;whiteSpace=wrap;rounded=0;fontColor=#ffffff;" parent="-ujorZfPfKvrBxWsnz2l-17" vertex="1">
          <mxGeometry x="10.00787878787879" y="15.48" width="80.6060606060606" height="29.03" as="geometry" />
        </mxCell>
        <mxCell id="-ujorZfPfKvrBxWsnz2l-20" value="" style="group;rounded=1;glass=0;" parent="1" vertex="1" connectable="0">
          <mxGeometry x="80" y="-360" width="140" height="60" as="geometry" />
        </mxCell>
        <mxCell id="-ujorZfPfKvrBxWsnz2l-21" value="" style="rounded=0;whiteSpace=wrap;html=1;strokeColor=#82b366;fillColor=#00693B;" parent="-ujorZfPfKvrBxWsnz2l-20" vertex="1">
          <mxGeometry y="1.935483870967742" width="100.625" height="58.064516129032256" as="geometry" />
        </mxCell>
        <mxCell id="-ujorZfPfKvrBxWsnz2l-22" value="Only for Mentions" style="text;html=1;align=center;verticalAlign=middle;whiteSpace=wrap;rounded=0;fontColor=#ffffff;" parent="-ujorZfPfKvrBxWsnz2l-20" vertex="1">
          <mxGeometry x="10.007878787878788" y="15.48" width="80.60606060606061" height="29.03" as="geometry" />
        </mxCell>
        <mxCell id="-ujorZfPfKvrBxWsnz2l-23" value="" style="group;rounded=1;glass=0;" parent="1" vertex="1" connectable="0">
          <mxGeometry x="240" y="-360" width="140" height="60" as="geometry" />
        </mxCell>
        <mxCell id="-ujorZfPfKvrBxWsnz2l-24" value="" style="rounded=0;whiteSpace=wrap;html=1;strokeColor=#82b366;fillColor=#00693B;" parent="-ujorZfPfKvrBxWsnz2l-23" vertex="1">
          <mxGeometry y="1.935483870967742" width="100.625" height="58.064516129032256" as="geometry" />
        </mxCell>
        <mxCell id="-ujorZfPfKvrBxWsnz2l-25" value="Global Default" style="text;html=1;align=center;verticalAlign=middle;whiteSpace=wrap;rounded=0;fontColor=#ffffff;" parent="-ujorZfPfKvrBxWsnz2l-23" vertex="1">
          <mxGeometry x="10.007878787878788" y="15.48" width="80.60606060606061" height="29.03" as="geometry" />
        </mxCell>
        <mxCell id="-ujorZfPfKvrBxWsnz2l-30" value="" style="group" parent="1" vertex="1" connectable="0">
          <mxGeometry x="390" y="-360" width="130" height="60" as="geometry" />
        </mxCell>
        <mxCell id="-ujorZfPfKvrBxWsnz2l-27" value="" style="rounded=0;whiteSpace=wrap;html=1;strokeColor=#82b366;fillColor=#00693B;" parent="-ujorZfPfKvrBxWsnz2l-30" vertex="1">
          <mxGeometry width="113.75" height="59.995484210865854" as="geometry" />
        </mxCell>
        <mxCell id="-ujorZfPfKvrBxWsnz2l-26" value="" style="group;rounded=1;glass=0;" parent="-ujorZfPfKvrBxWsnz2l-30" vertex="1" connectable="0">
          <mxGeometry x="16.25" y="0.004515789134147086" width="113.75" height="59.995484210865854" as="geometry" />
        </mxCell>
        <mxCell id="-ujorZfPfKvrBxWsnz2l-28" value="For All Activity" style="text;html=1;align=center;verticalAlign=middle;whiteSpace=wrap;rounded=0;fontColor=#ffffff;" parent="-ujorZfPfKvrBxWsnz2l-26" vertex="1">
          <mxGeometry x="8.131401515151515" y="15.478834926403392" width="65.49242424242425" height="29.027815110690597" as="geometry" />
        </mxCell>
        <mxCell id="-ujorZfPfKvrBxWsnz2l-31" style="edgeStyle=orthogonalEdgeStyle;rounded=0;orthogonalLoop=1;jettySize=auto;html=1;entryX=0.5;entryY=0;entryDx=0;entryDy=0;" parent="1" source="-ujorZfPfKvrBxWsnz2l-13" target="-ujorZfPfKvrBxWsnz2l-18" edge="1">
          <mxGeometry relative="1" as="geometry">
            <Array as="points">
              <mxPoint x="199" y="-380" />
              <mxPoint x="-30" y="-380" />
            </Array>
          </mxGeometry>
        </mxCell>
        <mxCell id="-ujorZfPfKvrBxWsnz2l-35" style="edgeStyle=orthogonalEdgeStyle;rounded=0;orthogonalLoop=1;jettySize=auto;html=1;entryX=0.5;entryY=0;entryDx=0;entryDy=0;" parent="1" target="-ujorZfPfKvrBxWsnz2l-5" edge="1">
          <mxGeometry relative="1" as="geometry">
            <mxPoint x="200" y="-910" as="sourcePoint" />
            <Array as="points">
              <mxPoint x="200" y="-890" />
              <mxPoint x="200" y="-890" />
            </Array>
          </mxGeometry>
        </mxCell>
        <mxCell id="KyfEQ4CnolOL-9VV9dGR-3" value="" style="group" vertex="1" connectable="0" parent="1">
          <mxGeometry x="910" y="-926" width="140" height="80" as="geometry" />
        </mxCell>
        <mxCell id="KyfEQ4CnolOL-9VV9dGR-1" value="" style="rhombus;whiteSpace=wrap;html=1;strokeColor=#3caade;" vertex="1" parent="KyfEQ4CnolOL-9VV9dGR-3">
          <mxGeometry width="140" height="80" as="geometry" />
        </mxCell>
        <mxCell id="KyfEQ4CnolOL-9VV9dGR-2" value="&lt;b&gt;User State&lt;/b&gt;" style="text;html=1;align=center;verticalAlign=middle;whiteSpace=wrap;rounded=0;" vertex="1" parent="KyfEQ4CnolOL-9VV9dGR-3">
          <mxGeometry x="16" y="25" width="110" height="30" as="geometry" />
        </mxCell>
        <mxCell id="KyfEQ4CnolOL-9VV9dGR-9" value="" style="group" vertex="1" connectable="0" parent="1">
          <mxGeometry x="1080" y="-926" width="140" height="80" as="geometry" />
        </mxCell>
        <mxCell id="KyfEQ4CnolOL-9VV9dGR-10" value="" style="rhombus;whiteSpace=wrap;html=1;strokeColor=#1462c2;" vertex="1" parent="KyfEQ4CnolOL-9VV9dGR-9">
          <mxGeometry width="140" height="80" as="geometry" />
        </mxCell>
        <mxCell id="KyfEQ4CnolOL-9VV9dGR-11" value="&lt;b&gt;Message State&lt;/b&gt;" style="text;html=1;align=center;verticalAlign=middle;whiteSpace=wrap;rounded=0;" vertex="1" parent="KyfEQ4CnolOL-9VV9dGR-9">
          <mxGeometry x="16" y="25" width="110" height="30" as="geometry" />
        </mxCell>
        <mxCell id="KyfEQ4CnolOL-9VV9dGR-15" value="" style="group" vertex="1" connectable="0" parent="1">
          <mxGeometry x="1050" y="360" width="140" height="100" as="geometry" />
        </mxCell>
        <mxCell id="KyfEQ4CnolOL-9VV9dGR-16" value="" style="rhombus;whiteSpace=wrap;html=1;strokeColor=#3CAADE;" vertex="1" parent="KyfEQ4CnolOL-9VV9dGR-15">
          <mxGeometry width="140" height="100" as="geometry" />
        </mxCell>
        <mxCell id="KyfEQ4CnolOL-9VV9dGR-17" value="Did the user &lt;b&gt;participate in the thread&lt;/b&gt;?" style="text;html=1;align=center;verticalAlign=middle;whiteSpace=wrap;rounded=0;" vertex="1" parent="KyfEQ4CnolOL-9VV9dGR-15">
          <mxGeometry x="15" y="31.25" width="110" height="37.5" as="geometry" />
        </mxCell>
        <mxCell id="KyfEQ4CnolOL-9VV9dGR-18" value="" style="group" vertex="1" connectable="0" parent="1">
          <mxGeometry x="1250.31" y="360" width="140" height="100" as="geometry" />
        </mxCell>
        <mxCell id="KyfEQ4CnolOL-9VV9dGR-154" style="edgeStyle=orthogonalEdgeStyle;rounded=0;orthogonalLoop=1;jettySize=auto;html=1;" edge="1" parent="KyfEQ4CnolOL-9VV9dGR-18" source="KyfEQ4CnolOL-9VV9dGR-19">
          <mxGeometry relative="1" as="geometry">
            <mxPoint x="219.69000000000005" y="170" as="targetPoint" />
          </mxGeometry>
        </mxCell>
        <mxCell id="KyfEQ4CnolOL-9VV9dGR-155" value="Yes" style="edgeLabel;html=1;align=center;verticalAlign=middle;resizable=0;points=[];" vertex="1" connectable="0" parent="KyfEQ4CnolOL-9VV9dGR-154">
          <mxGeometry x="-0.7836" y="-1" relative="1" as="geometry">
            <mxPoint as="offset" />
          </mxGeometry>
        </mxCell>
        <mxCell id="KyfEQ4CnolOL-9VV9dGR-19" value="" style="rhombus;whiteSpace=wrap;html=1;strokeColor=#3CAADE;" vertex="1" parent="KyfEQ4CnolOL-9VV9dGR-18">
          <mxGeometry width="140" height="100" as="geometry" />
        </mxCell>
        <mxCell id="KyfEQ4CnolOL-9VV9dGR-20" value="Did the user &lt;b&gt;start the thread&lt;/b&gt;?" style="text;html=1;align=center;verticalAlign=middle;whiteSpace=wrap;rounded=0;" vertex="1" parent="KyfEQ4CnolOL-9VV9dGR-18">
          <mxGeometry x="23" y="31.25" width="94" height="37.5" as="geometry" />
        </mxCell>
        <mxCell id="KyfEQ4CnolOL-9VV9dGR-21" value="" style="group" vertex="1" connectable="0" parent="1">
          <mxGeometry x="680" y="130" width="140" height="120" as="geometry" />
        </mxCell>
        <mxCell id="KyfEQ4CnolOL-9VV9dGR-22" value="" style="rhombus;whiteSpace=wrap;html=1;strokeColor=#1462C2;" vertex="1" parent="KyfEQ4CnolOL-9VV9dGR-21">
          <mxGeometry width="140" height="120" as="geometry" />
        </mxCell>
        <mxCell id="KyfEQ4CnolOL-9VV9dGR-109" style="edgeStyle=orthogonalEdgeStyle;rounded=0;orthogonalLoop=1;jettySize=auto;html=1;" edge="1" parent="KyfEQ4CnolOL-9VV9dGR-21">
          <mxGeometry relative="1" as="geometry">
            <mxPoint x="320" y="60" as="targetPoint" />
            <mxPoint x="140" y="60" as="sourcePoint" />
          </mxGeometry>
        </mxCell>
        <mxCell id="KyfEQ4CnolOL-9VV9dGR-130" value="Yes" style="edgeLabel;html=1;align=center;verticalAlign=middle;resizable=0;points=[];" vertex="1" connectable="0" parent="KyfEQ4CnolOL-9VV9dGR-109">
          <mxGeometry x="-0.3533" relative="1" as="geometry">
            <mxPoint as="offset" />
          </mxGeometry>
        </mxCell>
        <mxCell id="KyfEQ4CnolOL-9VV9dGR-23" value="Is the message in a &lt;b&gt;thread&lt;/b&gt;?" style="text;html=1;align=center;verticalAlign=middle;whiteSpace=wrap;rounded=0;" vertex="1" parent="KyfEQ4CnolOL-9VV9dGR-21">
          <mxGeometry x="33" y="37.5" width="74" height="45" as="geometry" />
        </mxCell>
        <mxCell id="KyfEQ4CnolOL-9VV9dGR-24" value="" style="group" vertex="1" connectable="0" parent="1">
          <mxGeometry x="460" y="130" width="140" height="100" as="geometry" />
        </mxCell>
        <mxCell id="KyfEQ4CnolOL-9VV9dGR-25" value="" style="rhombus;whiteSpace=wrap;html=1;strokeColor=#1462C2;" vertex="1" parent="KyfEQ4CnolOL-9VV9dGR-24">
          <mxGeometry width="140" height="120" as="geometry" />
        </mxCell>
        <mxCell id="KyfEQ4CnolOL-9VV9dGR-26" value="Does the message contain other &lt;b&gt;words that trigger mentions&lt;/b&gt;?" style="text;html=1;align=center;verticalAlign=middle;whiteSpace=wrap;rounded=0;" vertex="1" parent="KyfEQ4CnolOL-9VV9dGR-24">
          <mxGeometry x="23" y="40.25" width="94" height="37.5" as="geometry" />
        </mxCell>
        <mxCell id="KyfEQ4CnolOL-9VV9dGR-27" value="" style="group" vertex="1" connectable="0" parent="1">
          <mxGeometry x="270" y="130" width="140" height="120" as="geometry" />
        </mxCell>
        <mxCell id="KyfEQ4CnolOL-9VV9dGR-28" value="" style="rhombus;whiteSpace=wrap;html=1;strokeColor=#1462C2;" vertex="1" parent="KyfEQ4CnolOL-9VV9dGR-27">
          <mxGeometry width="140" height="120" as="geometry" />
        </mxCell>
        <mxCell id="KyfEQ4CnolOL-9VV9dGR-29" value="Does the message contain &lt;b&gt;@here&lt;/b&gt;?" style="text;html=1;align=center;verticalAlign=middle;whiteSpace=wrap;rounded=0;" vertex="1" parent="KyfEQ4CnolOL-9VV9dGR-27">
          <mxGeometry x="23" y="37.5" width="94" height="45" as="geometry" />
        </mxCell>
        <mxCell id="KyfEQ4CnolOL-9VV9dGR-30" value="" style="group" vertex="1" connectable="0" parent="1">
          <mxGeometry x="60" y="130" width="140" height="120" as="geometry" />
        </mxCell>
        <mxCell id="KyfEQ4CnolOL-9VV9dGR-88" style="edgeStyle=orthogonalEdgeStyle;rounded=0;orthogonalLoop=1;jettySize=auto;html=1;" edge="1" parent="KyfEQ4CnolOL-9VV9dGR-30" source="KyfEQ4CnolOL-9VV9dGR-31">
          <mxGeometry relative="1" as="geometry">
            <mxPoint x="209.99999999999977" y="60.000000000000014" as="targetPoint" />
          </mxGeometry>
        </mxCell>
        <mxCell id="KyfEQ4CnolOL-9VV9dGR-121" value="No" style="edgeLabel;html=1;align=center;verticalAlign=middle;resizable=0;points=[];" vertex="1" connectable="0" parent="KyfEQ4CnolOL-9VV9dGR-88">
          <mxGeometry x="-0.1966" y="1" relative="1" as="geometry">
            <mxPoint as="offset" />
          </mxGeometry>
        </mxCell>
        <mxCell id="KyfEQ4CnolOL-9VV9dGR-31" value="" style="rhombus;whiteSpace=wrap;html=1;strokeColor=#1462C2;" vertex="1" parent="KyfEQ4CnolOL-9VV9dGR-30">
          <mxGeometry width="140" height="120.00000000000003" as="geometry" />
        </mxCell>
        <mxCell id="KyfEQ4CnolOL-9VV9dGR-32" value="Does the messgae contain &lt;b&gt;@channel or @all&lt;/b&gt;?" style="text;html=1;align=center;verticalAlign=middle;whiteSpace=wrap;rounded=0;" vertex="1" parent="KyfEQ4CnolOL-9VV9dGR-30">
          <mxGeometry x="23" y="37.5" width="94" height="45" as="geometry" />
        </mxCell>
        <mxCell id="KyfEQ4CnolOL-9VV9dGR-33" value="" style="group" vertex="1" connectable="0" parent="1">
          <mxGeometry x="385" y="-30" width="140" height="80" as="geometry" />
        </mxCell>
        <mxCell id="KyfEQ4CnolOL-9VV9dGR-34" value="" style="rhombus;whiteSpace=wrap;html=1;strokeColor=#1462C2;" vertex="1" parent="KyfEQ4CnolOL-9VV9dGR-33">
          <mxGeometry width="140" height="80" as="geometry" />
        </mxCell>
        <mxCell id="KyfEQ4CnolOL-9VV9dGR-35" value="Is it a &lt;b&gt;Direct Message&lt;/b&gt;?" style="text;html=1;align=center;verticalAlign=middle;whiteSpace=wrap;rounded=0;" vertex="1" parent="KyfEQ4CnolOL-9VV9dGR-33">
          <mxGeometry x="16" y="25" width="110" height="30" as="geometry" />
        </mxCell>
        <mxCell id="KyfEQ4CnolOL-9VV9dGR-36" value="" style="group" vertex="1" connectable="0" parent="1">
          <mxGeometry x="240" y="-250" width="460" height="170" as="geometry" />
        </mxCell>
        <mxCell id="-ujorZfPfKvrBxWsnz2l-43" value="" style="group;rounded=1;glass=0;" parent="KyfEQ4CnolOL-9VV9dGR-36" vertex="1" connectable="0">
          <mxGeometry x="90" width="330" height="60" as="geometry" />
        </mxCell>
        <mxCell id="-ujorZfPfKvrBxWsnz2l-48" style="edgeStyle=orthogonalEdgeStyle;rounded=0;orthogonalLoop=1;jettySize=auto;html=1;" parent="-ujorZfPfKvrBxWsnz2l-43" source="-ujorZfPfKvrBxWsnz2l-46" edge="1">
          <mxGeometry relative="1" as="geometry">
            <mxPoint x="119" y="110" as="targetPoint" />
          </mxGeometry>
        </mxCell>
        <mxCell id="-ujorZfPfKvrBxWsnz2l-46" value="" style="rounded=0;whiteSpace=wrap;html=1;strokeColor=#82b366;fillColor=#00693B;" parent="-ujorZfPfKvrBxWsnz2l-43" vertex="1">
          <mxGeometry y="1.935483870967742" width="237.1875" height="58.064516129032256" as="geometry" />
        </mxCell>
        <mxCell id="-ujorZfPfKvrBxWsnz2l-47" value="What is the users&lt;b&gt; account settings notification &lt;/b&gt;preference for when to send desktop notifications?" style="text;html=1;align=center;verticalAlign=middle;whiteSpace=wrap;rounded=0;fontColor=#ffffff;" parent="-ujorZfPfKvrBxWsnz2l-43" vertex="1">
          <mxGeometry x="23.59" y="15.48" width="196.41" height="29.03" as="geometry" />
        </mxCell>
        <mxCell id="-ujorZfPfKvrBxWsnz2l-49" value="" style="group;rounded=1;glass=0;" parent="KyfEQ4CnolOL-9VV9dGR-36" vertex="1" connectable="0">
          <mxGeometry y="110" width="140" height="60" as="geometry" />
        </mxCell>
        <mxCell id="-ujorZfPfKvrBxWsnz2l-61" value="" style="group" parent="-ujorZfPfKvrBxWsnz2l-49" vertex="1" connectable="0">
          <mxGeometry y="1.935483870967742" width="100.625" height="58.064516129032256" as="geometry" />
        </mxCell>
        <mxCell id="-ujorZfPfKvrBxWsnz2l-50" value="" style="rounded=0;whiteSpace=wrap;html=1;strokeColor=#82b366;fillColor=#00693B;" parent="-ujorZfPfKvrBxWsnz2l-61" vertex="1">
          <mxGeometry width="100.625" height="58.064516129032256" as="geometry" />
        </mxCell>
        <mxCell id="KyfEQ4CnolOL-9VV9dGR-84" style="edgeStyle=orthogonalEdgeStyle;rounded=0;orthogonalLoop=1;jettySize=auto;html=1;" edge="1" parent="-ujorZfPfKvrBxWsnz2l-61">
          <mxGeometry relative="1" as="geometry">
            <mxPoint x="-440" y="669.3978291173134" as="targetPoint" />
            <mxPoint y="28.064516129032256" as="sourcePoint" />
          </mxGeometry>
        </mxCell>
        <mxCell id="-ujorZfPfKvrBxWsnz2l-51" value="Never" style="text;html=1;align=center;verticalAlign=middle;whiteSpace=wrap;rounded=0;fontColor=#ffffff;" parent="-ujorZfPfKvrBxWsnz2l-61" vertex="1">
          <mxGeometry x="10.007878787878788" y="13.544516129032258" width="80.60606060606061" height="29.03" as="geometry" />
        </mxCell>
        <mxCell id="-ujorZfPfKvrBxWsnz2l-52" value="" style="group;rounded=1;glass=0;" parent="KyfEQ4CnolOL-9VV9dGR-36" vertex="1" connectable="0">
          <mxGeometry x="130" y="110" width="170" height="60" as="geometry" />
        </mxCell>
        <mxCell id="-ujorZfPfKvrBxWsnz2l-59" value="" style="group" parent="-ujorZfPfKvrBxWsnz2l-52" vertex="1" connectable="0">
          <mxGeometry x="15" y="0.97" width="140" height="58.06" as="geometry" />
        </mxCell>
        <mxCell id="-ujorZfPfKvrBxWsnz2l-53" value="" style="rounded=0;whiteSpace=wrap;html=1;strokeColor=#82b366;fillColor=#00693B;" parent="-ujorZfPfKvrBxWsnz2l-59" vertex="1">
          <mxGeometry width="140" height="58.06" as="geometry" />
        </mxCell>
        <mxCell id="-ujorZfPfKvrBxWsnz2l-54" value="Only for Mentions and Direct Messages" style="text;html=1;align=center;verticalAlign=middle;whiteSpace=wrap;rounded=0;fontColor=#ffffff;" parent="-ujorZfPfKvrBxWsnz2l-59" vertex="1">
          <mxGeometry x="6.079999999999998" y="14.509999999999998" width="127.85" height="29.03" as="geometry" />
        </mxCell>
        <mxCell id="-ujorZfPfKvrBxWsnz2l-55" value="" style="group;rounded=1;glass=0;" parent="KyfEQ4CnolOL-9VV9dGR-36" vertex="1" connectable="0">
          <mxGeometry x="320" y="110" width="140" height="60" as="geometry" />
        </mxCell>
        <mxCell id="-ujorZfPfKvrBxWsnz2l-60" value="" style="group" parent="-ujorZfPfKvrBxWsnz2l-55" vertex="1" connectable="0">
          <mxGeometry y="1.935483870967742" width="100.625" height="58.064516129032256" as="geometry" />
        </mxCell>
        <mxCell id="-ujorZfPfKvrBxWsnz2l-56" value="" style="rounded=0;whiteSpace=wrap;html=1;strokeColor=#82b366;fillColor=#00693B;" parent="-ujorZfPfKvrBxWsnz2l-60" vertex="1">
          <mxGeometry width="100.625" height="58.064516129032256" as="geometry" />
        </mxCell>
        <mxCell id="-ujorZfPfKvrBxWsnz2l-57" value="For All Activity" style="text;html=1;align=center;verticalAlign=middle;whiteSpace=wrap;rounded=0;fontColor=#ffffff;" parent="-ujorZfPfKvrBxWsnz2l-60" vertex="1">
          <mxGeometry x="15.32" y="14.52" width="69.99" height="29.03" as="geometry" />
        </mxCell>
        <mxCell id="-ujorZfPfKvrBxWsnz2l-44" style="edgeStyle=orthogonalEdgeStyle;rounded=0;orthogonalLoop=1;jettySize=auto;html=1;entryX=0.475;entryY=0.005;entryDx=0;entryDy=0;entryPerimeter=0;" parent="KyfEQ4CnolOL-9VV9dGR-36" source="-ujorZfPfKvrBxWsnz2l-46" target="-ujorZfPfKvrBxWsnz2l-50" edge="1">
          <mxGeometry relative="1" as="geometry">
            <mxPoint x="120" y="110" as="targetPoint" />
          </mxGeometry>
        </mxCell>
        <mxCell id="-ujorZfPfKvrBxWsnz2l-45" style="edgeStyle=orthogonalEdgeStyle;rounded=0;orthogonalLoop=1;jettySize=auto;html=1;entryX=0.5;entryY=0;entryDx=0;entryDy=0;" parent="KyfEQ4CnolOL-9VV9dGR-36" source="-ujorZfPfKvrBxWsnz2l-46" target="-ujorZfPfKvrBxWsnz2l-56" edge="1">
          <mxGeometry relative="1" as="geometry">
            <mxPoint x="300" y="110" as="targetPoint" />
          </mxGeometry>
        </mxCell>
        <mxCell id="KyfEQ4CnolOL-9VV9dGR-37" value="" style="group" vertex="1" connectable="0" parent="1">
          <mxGeometry x="60" y="-45" width="150" height="110" as="geometry" />
        </mxCell>
        <mxCell id="KyfEQ4CnolOL-9VV9dGR-38" value="" style="rhombus;whiteSpace=wrap;html=1;strokeColor=#047D7E;" vertex="1" parent="KyfEQ4CnolOL-9VV9dGR-37">
          <mxGeometry x="-4.081632653061225" y="-10.999999999999998" width="150.00000000000003" height="132.00000000000003" as="geometry" />
        </mxCell>
        <mxCell id="KyfEQ4CnolOL-9VV9dGR-39" value="&lt;b&gt;Ignore&lt;/b&gt; mentions for &lt;b&gt;@channel, @here and @all&lt;/b&gt; in this channel?" style="text;html=1;align=center;verticalAlign=middle;whiteSpace=wrap;rounded=0;" vertex="1" parent="KyfEQ4CnolOL-9VV9dGR-37">
          <mxGeometry x="28.989795918367346" y="34.375" width="83.85714285714288" height="41.25" as="geometry" />
        </mxCell>
        <mxCell id="KyfEQ4CnolOL-9VV9dGR-40" value="" style="group" vertex="1" connectable="0" parent="1">
          <mxGeometry x="910" y="150" width="460" height="170" as="geometry" />
        </mxCell>
        <mxCell id="KyfEQ4CnolOL-9VV9dGR-41" value="" style="group;rounded=1;glass=0;" vertex="1" connectable="0" parent="KyfEQ4CnolOL-9VV9dGR-40">
          <mxGeometry x="90" y="10" width="330" height="60" as="geometry" />
        </mxCell>
        <mxCell id="KyfEQ4CnolOL-9VV9dGR-42" style="edgeStyle=orthogonalEdgeStyle;rounded=0;orthogonalLoop=1;jettySize=auto;html=1;" edge="1" parent="KyfEQ4CnolOL-9VV9dGR-41" source="KyfEQ4CnolOL-9VV9dGR-43">
          <mxGeometry relative="1" as="geometry">
            <mxPoint x="119" y="110" as="targetPoint" />
          </mxGeometry>
        </mxCell>
        <mxCell id="KyfEQ4CnolOL-9VV9dGR-43" value="" style="rounded=0;whiteSpace=wrap;html=1;strokeColor=#82b366;fillColor=#00693B;" vertex="1" parent="KyfEQ4CnolOL-9VV9dGR-41">
          <mxGeometry y="1.935483870967742" width="237.1875" height="58.064516129032256" as="geometry" />
        </mxCell>
        <mxCell id="KyfEQ4CnolOL-9VV9dGR-44" value="What is the users&amp;nbsp;notification&lt;b&gt; &lt;/b&gt;preference for &lt;b&gt;Reply Notifications&lt;/b&gt;?" style="text;html=1;align=center;verticalAlign=middle;whiteSpace=wrap;rounded=0;fontColor=#ffffff;" vertex="1" parent="KyfEQ4CnolOL-9VV9dGR-41">
          <mxGeometry x="23.59" y="15.48" width="196.41" height="29.03" as="geometry" />
        </mxCell>
        <mxCell id="KyfEQ4CnolOL-9VV9dGR-45" value="" style="group;rounded=1;glass=0;" vertex="1" connectable="0" parent="KyfEQ4CnolOL-9VV9dGR-40">
          <mxGeometry y="110" width="140" height="60" as="geometry" />
        </mxCell>
        <mxCell id="KyfEQ4CnolOL-9VV9dGR-46" value="" style="group" vertex="1" connectable="0" parent="KyfEQ4CnolOL-9VV9dGR-45">
          <mxGeometry x="-30" y="1.935483870967742" width="100.625" height="58.064516129032256" as="geometry" />
        </mxCell>
        <mxCell id="KyfEQ4CnolOL-9VV9dGR-100" style="edgeStyle=orthogonalEdgeStyle;rounded=0;orthogonalLoop=1;jettySize=auto;html=1;" edge="1" parent="KyfEQ4CnolOL-9VV9dGR-46" source="KyfEQ4CnolOL-9VV9dGR-47">
          <mxGeometry relative="1" as="geometry">
            <mxPoint x="-990" y="298.06451612903226" as="targetPoint" />
            <Array as="points">
              <mxPoint x="50" y="298" />
            </Array>
          </mxGeometry>
        </mxCell>
        <mxCell id="KyfEQ4CnolOL-9VV9dGR-47" value="" style="rounded=0;whiteSpace=wrap;html=1;strokeColor=#82b366;fillColor=#00693B;" vertex="1" parent="KyfEQ4CnolOL-9VV9dGR-46">
          <mxGeometry width="100.625" height="58.064516129032256" as="geometry" />
        </mxCell>
        <mxCell id="KyfEQ4CnolOL-9VV9dGR-48" value="Only if mentioned" style="text;html=1;align=center;verticalAlign=middle;whiteSpace=wrap;rounded=0;fontColor=#ffffff;" vertex="1" parent="KyfEQ4CnolOL-9VV9dGR-46">
          <mxGeometry x="10.007878787878788" y="13.544516129032258" width="80.60606060606061" height="29.03" as="geometry" />
        </mxCell>
        <mxCell id="KyfEQ4CnolOL-9VV9dGR-49" value="" style="group;rounded=1;glass=0;" vertex="1" connectable="0" parent="KyfEQ4CnolOL-9VV9dGR-40">
          <mxGeometry x="130" y="110" width="170" height="60" as="geometry" />
        </mxCell>
        <mxCell id="KyfEQ4CnolOL-9VV9dGR-50" value="" style="group" vertex="1" connectable="0" parent="KyfEQ4CnolOL-9VV9dGR-49">
          <mxGeometry x="15" y="0.97" width="140" height="58.06" as="geometry" />
        </mxCell>
        <mxCell id="KyfEQ4CnolOL-9VV9dGR-51" value="" style="rounded=0;whiteSpace=wrap;html=1;strokeColor=#82b366;fillColor=#00693B;" vertex="1" parent="KyfEQ4CnolOL-9VV9dGR-50">
          <mxGeometry width="140" height="58.06" as="geometry" />
        </mxCell>
        <mxCell id="KyfEQ4CnolOL-9VV9dGR-52" value="Threads the user starts or participates in" style="text;html=1;align=center;verticalAlign=middle;whiteSpace=wrap;rounded=0;fontColor=#ffffff;" vertex="1" parent="KyfEQ4CnolOL-9VV9dGR-50">
          <mxGeometry x="6.079999999999998" y="14.509999999999998" width="127.85" height="29.03" as="geometry" />
        </mxCell>
        <mxCell id="KyfEQ4CnolOL-9VV9dGR-53" value="" style="group;rounded=1;glass=0;" vertex="1" connectable="0" parent="KyfEQ4CnolOL-9VV9dGR-40">
          <mxGeometry x="360" y="110" width="140" height="60" as="geometry" />
        </mxCell>
        <mxCell id="KyfEQ4CnolOL-9VV9dGR-54" value="" style="group" vertex="1" connectable="0" parent="KyfEQ4CnolOL-9VV9dGR-53">
          <mxGeometry y="1.935483870967742" width="100.625" height="58.064516129032256" as="geometry" />
        </mxCell>
        <mxCell id="KyfEQ4CnolOL-9VV9dGR-55" value="" style="rounded=0;whiteSpace=wrap;html=1;strokeColor=#82b366;fillColor=#00693B;" vertex="1" parent="KyfEQ4CnolOL-9VV9dGR-54">
          <mxGeometry width="100.625" height="58.064516129032256" as="geometry" />
        </mxCell>
        <mxCell id="KyfEQ4CnolOL-9VV9dGR-56" value="Threads the user starts" style="text;html=1;align=center;verticalAlign=middle;whiteSpace=wrap;rounded=0;fontColor=#ffffff;" vertex="1" parent="KyfEQ4CnolOL-9VV9dGR-54">
          <mxGeometry x="10.007878787878788" y="13.544516129032258" width="80.60606060606061" height="29.03" as="geometry" />
        </mxCell>
        <mxCell id="KyfEQ4CnolOL-9VV9dGR-57" style="edgeStyle=orthogonalEdgeStyle;rounded=0;orthogonalLoop=1;jettySize=auto;html=1;entryX=0.475;entryY=0.005;entryDx=0;entryDy=0;entryPerimeter=0;" edge="1" parent="KyfEQ4CnolOL-9VV9dGR-40" source="KyfEQ4CnolOL-9VV9dGR-43" target="KyfEQ4CnolOL-9VV9dGR-47">
          <mxGeometry relative="1" as="geometry">
            <mxPoint x="120" y="110" as="targetPoint" />
            <Array as="points">
              <mxPoint x="209" y="80" />
              <mxPoint x="18" y="80" />
            </Array>
          </mxGeometry>
        </mxCell>
        <mxCell id="KyfEQ4CnolOL-9VV9dGR-58" style="edgeStyle=orthogonalEdgeStyle;rounded=0;orthogonalLoop=1;jettySize=auto;html=1;entryX=0.5;entryY=0;entryDx=0;entryDy=0;" edge="1" parent="KyfEQ4CnolOL-9VV9dGR-40" source="KyfEQ4CnolOL-9VV9dGR-43" target="KyfEQ4CnolOL-9VV9dGR-55">
          <mxGeometry relative="1" as="geometry">
            <mxPoint x="300" y="110" as="targetPoint" />
            <Array as="points">
              <mxPoint x="209" y="80" />
              <mxPoint x="410" y="80" />
            </Array>
          </mxGeometry>
        </mxCell>
        <mxCell id="KyfEQ4CnolOL-9VV9dGR-59" value="" style="group" vertex="1" connectable="0" parent="1">
          <mxGeometry x="270" y="310" width="140" height="100" as="geometry" />
        </mxCell>
        <mxCell id="KyfEQ4CnolOL-9VV9dGR-103" style="edgeStyle=orthogonalEdgeStyle;rounded=0;orthogonalLoop=1;jettySize=auto;html=1;" edge="1" parent="KyfEQ4CnolOL-9VV9dGR-59" source="KyfEQ4CnolOL-9VV9dGR-60">
          <mxGeometry relative="1" as="geometry">
            <mxPoint x="190" y="-120" as="targetPoint" />
            <Array as="points">
              <mxPoint x="170" y="50" />
              <mxPoint x="170" y="-120" />
              <mxPoint x="190" y="-120" />
            </Array>
          </mxGeometry>
        </mxCell>
        <mxCell id="KyfEQ4CnolOL-9VV9dGR-126" value="No" style="edgeLabel;html=1;align=center;verticalAlign=middle;resizable=0;points=[];" vertex="1" connectable="0" parent="KyfEQ4CnolOL-9VV9dGR-103">
          <mxGeometry x="-0.8635" y="-1" relative="1" as="geometry">
            <mxPoint as="offset" />
          </mxGeometry>
        </mxCell>
        <mxCell id="KyfEQ4CnolOL-9VV9dGR-60" value="" style="rhombus;whiteSpace=wrap;html=1;strokeColor=#3CAADE;" vertex="1" parent="KyfEQ4CnolOL-9VV9dGR-59">
          <mxGeometry width="140" height="100" as="geometry" />
        </mxCell>
        <mxCell id="KyfEQ4CnolOL-9VV9dGR-61" value="Is the user status &lt;b&gt;online or away&lt;/b&gt;?" style="text;html=1;align=center;verticalAlign=middle;whiteSpace=wrap;rounded=0;" vertex="1" parent="KyfEQ4CnolOL-9VV9dGR-59">
          <mxGeometry x="28" y="31.25" width="84" height="37.5" as="geometry" />
        </mxCell>
        <mxCell id="KyfEQ4CnolOL-9VV9dGR-69" value="" style="group;rounded=1;glass=0;fillColor=#ffffff;strokeColor=#ffffff;" vertex="1" connectable="0" parent="1">
          <mxGeometry x="1381" y="528" width="180" height="62" as="geometry" />
        </mxCell>
        <mxCell id="KyfEQ4CnolOL-9VV9dGR-70" value="" style="rounded=0;whiteSpace=wrap;html=1;fontColor=#858585;strokeColor=#666666;fillColor=#327700;" vertex="1" parent="KyfEQ4CnolOL-9VV9dGR-69">
          <mxGeometry y="2" width="180" height="60" as="geometry" />
        </mxCell>
        <mxCell id="KyfEQ4CnolOL-9VV9dGR-72" value="Trigger a desktop notification" style="text;html=1;align=center;verticalAlign=middle;whiteSpace=wrap;rounded=0;fontColor=#FFFFFF;fontStyle=1" vertex="1" parent="KyfEQ4CnolOL-9VV9dGR-69">
          <mxGeometry x="34.690000000000005" y="17" width="110.63" height="30" as="geometry" />
        </mxCell>
        <mxCell id="KyfEQ4CnolOL-9VV9dGR-73" value="" style="group;rounded=1;glass=0;fillColor=#ffffff;strokeColor=#ffffff;" vertex="1" connectable="0" parent="1">
          <mxGeometry x="-289" y="528" width="180" height="62" as="geometry" />
        </mxCell>
        <mxCell id="KyfEQ4CnolOL-9VV9dGR-74" value="" style="rounded=0;whiteSpace=wrap;html=1;fontColor=#858585;strokeColor=#666666;fillColor=#ca2936;" vertex="1" parent="KyfEQ4CnolOL-9VV9dGR-73">
          <mxGeometry y="2" width="180" height="60" as="geometry" />
        </mxCell>
        <mxCell id="KyfEQ4CnolOL-9VV9dGR-75" value="Do not trigger a desktop notification" style="text;html=1;align=center;verticalAlign=middle;whiteSpace=wrap;rounded=0;fontColor=#FFFFFF;fontStyle=1" vertex="1" parent="KyfEQ4CnolOL-9VV9dGR-73">
          <mxGeometry x="27.339999999999996" y="17" width="125.31" height="30" as="geometry" />
        </mxCell>
        <mxCell id="KyfEQ4CnolOL-9VV9dGR-77" style="edgeStyle=orthogonalEdgeStyle;rounded=0;orthogonalLoop=1;jettySize=auto;html=1;exitX=0;exitY=0.5;exitDx=0;exitDy=0;entryX=0.5;entryY=0;entryDx=0;entryDy=0;" edge="1" parent="1" source="-ujorZfPfKvrBxWsnz2l-5" target="KyfEQ4CnolOL-9VV9dGR-74">
          <mxGeometry relative="1" as="geometry">
            <mxPoint x="-200" y="480" as="targetPoint" />
          </mxGeometry>
        </mxCell>
        <mxCell id="KyfEQ4CnolOL-9VV9dGR-115" value="Yes" style="edgeLabel;html=1;align=center;verticalAlign=middle;resizable=0;points=[];" vertex="1" connectable="0" parent="KyfEQ4CnolOL-9VV9dGR-77">
          <mxGeometry x="-0.9349" relative="1" as="geometry">
            <mxPoint as="offset" />
          </mxGeometry>
        </mxCell>
        <mxCell id="KyfEQ4CnolOL-9VV9dGR-80" style="edgeStyle=orthogonalEdgeStyle;rounded=0;orthogonalLoop=1;jettySize=auto;html=1;exitX=0.5;exitY=1;exitDx=0;exitDy=0;" edge="1" parent="1" source="-ujorZfPfKvrBxWsnz2l-24">
          <mxGeometry relative="1" as="geometry">
            <mxPoint x="450" y="-250" as="targetPoint" />
            <mxPoint x="280.00399999999985" y="-309.9999999999999" as="sourcePoint" />
            <Array as="points">
              <mxPoint x="290" y="-280" />
              <mxPoint x="450" y="-280" />
            </Array>
          </mxGeometry>
        </mxCell>
        <mxCell id="KyfEQ4CnolOL-9VV9dGR-81" style="edgeStyle=orthogonalEdgeStyle;rounded=0;orthogonalLoop=1;jettySize=auto;html=1;entryX=0.5;entryY=0;entryDx=0;entryDy=0;" edge="1" parent="1" target="KyfEQ4CnolOL-9VV9dGR-74">
          <mxGeometry relative="1" as="geometry">
            <mxPoint x="-80" y="-330" as="sourcePoint" />
          </mxGeometry>
        </mxCell>
        <mxCell id="KyfEQ4CnolOL-9VV9dGR-82" style="edgeStyle=orthogonalEdgeStyle;rounded=0;orthogonalLoop=1;jettySize=auto;html=1;entryX=0.5;entryY=0;entryDx=0;entryDy=0;" edge="1" parent="1" source="-ujorZfPfKvrBxWsnz2l-21" target="KyfEQ4CnolOL-9VV9dGR-38">
          <mxGeometry relative="1" as="geometry" />
        </mxCell>
        <mxCell id="KyfEQ4CnolOL-9VV9dGR-85" style="edgeStyle=orthogonalEdgeStyle;rounded=0;orthogonalLoop=1;jettySize=auto;html=1;entryX=1;entryY=0.5;entryDx=0;entryDy=0;" edge="1" parent="1" source="KyfEQ4CnolOL-9VV9dGR-34" target="KyfEQ4CnolOL-9VV9dGR-38">
          <mxGeometry relative="1" as="geometry" />
        </mxCell>
        <mxCell id="KyfEQ4CnolOL-9VV9dGR-117" value="No&amp;nbsp;" style="edgeLabel;html=1;align=center;verticalAlign=middle;resizable=0;points=[];" vertex="1" connectable="0" parent="KyfEQ4CnolOL-9VV9dGR-85">
          <mxGeometry x="-0.5075" y="-1" relative="1" as="geometry">
            <mxPoint as="offset" />
          </mxGeometry>
        </mxCell>
        <mxCell id="KyfEQ4CnolOL-9VV9dGR-86" style="edgeStyle=orthogonalEdgeStyle;rounded=0;orthogonalLoop=1;jettySize=auto;html=1;entryX=0.5;entryY=0;entryDx=0;entryDy=0;" edge="1" parent="1" source="KyfEQ4CnolOL-9VV9dGR-38" target="KyfEQ4CnolOL-9VV9dGR-31">
          <mxGeometry relative="1" as="geometry" />
        </mxCell>
        <mxCell id="KyfEQ4CnolOL-9VV9dGR-120" value="No" style="edgeLabel;html=1;align=center;verticalAlign=middle;resizable=0;points=[];" vertex="1" connectable="0" parent="KyfEQ4CnolOL-9VV9dGR-86">
          <mxGeometry x="-0.052" y="-1" relative="1" as="geometry">
            <mxPoint as="offset" />
          </mxGeometry>
        </mxCell>
        <mxCell id="KyfEQ4CnolOL-9VV9dGR-87" style="edgeStyle=orthogonalEdgeStyle;rounded=0;orthogonalLoop=1;jettySize=auto;html=1;entryX=0.5;entryY=0;entryDx=0;entryDy=0;" edge="1" parent="1" source="KyfEQ4CnolOL-9VV9dGR-38" target="KyfEQ4CnolOL-9VV9dGR-25">
          <mxGeometry relative="1" as="geometry">
            <Array as="points">
              <mxPoint x="131" y="90" />
              <mxPoint x="530" y="90" />
            </Array>
          </mxGeometry>
        </mxCell>
        <mxCell id="KyfEQ4CnolOL-9VV9dGR-119" value="Yes" style="edgeLabel;html=1;align=center;verticalAlign=middle;resizable=0;points=[];" vertex="1" connectable="0" parent="KyfEQ4CnolOL-9VV9dGR-87">
          <mxGeometry x="-0.6387" y="1" relative="1" as="geometry">
            <mxPoint as="offset" />
          </mxGeometry>
        </mxCell>
        <mxCell id="KyfEQ4CnolOL-9VV9dGR-89" style="edgeStyle=orthogonalEdgeStyle;rounded=0;orthogonalLoop=1;jettySize=auto;html=1;entryX=0;entryY=0.5;entryDx=0;entryDy=0;" edge="1" parent="1" source="KyfEQ4CnolOL-9VV9dGR-28" target="KyfEQ4CnolOL-9VV9dGR-25">
          <mxGeometry relative="1" as="geometry" />
        </mxCell>
        <mxCell id="KyfEQ4CnolOL-9VV9dGR-122" value="No" style="edgeLabel;html=1;align=center;verticalAlign=middle;resizable=0;points=[];" vertex="1" connectable="0" parent="KyfEQ4CnolOL-9VV9dGR-89">
          <mxGeometry x="-0.32" y="1" relative="1" as="geometry">
            <mxPoint as="offset" />
          </mxGeometry>
        </mxCell>
        <mxCell id="KyfEQ4CnolOL-9VV9dGR-90" style="edgeStyle=orthogonalEdgeStyle;rounded=0;orthogonalLoop=1;jettySize=auto;html=1;entryX=0;entryY=0.5;entryDx=0;entryDy=0;" edge="1" parent="1" source="KyfEQ4CnolOL-9VV9dGR-25" target="KyfEQ4CnolOL-9VV9dGR-22">
          <mxGeometry relative="1" as="geometry" />
        </mxCell>
        <mxCell id="KyfEQ4CnolOL-9VV9dGR-123" value="No" style="edgeLabel;html=1;align=center;verticalAlign=middle;resizable=0;points=[];" vertex="1" connectable="0" parent="KyfEQ4CnolOL-9VV9dGR-90">
          <mxGeometry x="-0.2417" relative="1" as="geometry">
            <mxPoint as="offset" />
          </mxGeometry>
        </mxCell>
        <mxCell id="KyfEQ4CnolOL-9VV9dGR-91" style="edgeStyle=orthogonalEdgeStyle;rounded=0;orthogonalLoop=1;jettySize=auto;html=1;entryX=0.5;entryY=0;entryDx=0;entryDy=0;" edge="1" parent="1" source="KyfEQ4CnolOL-9VV9dGR-34" target="KyfEQ4CnolOL-9VV9dGR-70">
          <mxGeometry relative="1" as="geometry" />
        </mxCell>
        <mxCell id="KyfEQ4CnolOL-9VV9dGR-118" value="Yes" style="edgeLabel;html=1;align=center;verticalAlign=middle;resizable=0;points=[];" vertex="1" connectable="0" parent="KyfEQ4CnolOL-9VV9dGR-91">
          <mxGeometry x="-0.94" relative="1" as="geometry">
            <mxPoint as="offset" />
          </mxGeometry>
        </mxCell>
        <mxCell id="KyfEQ4CnolOL-9VV9dGR-92" style="edgeStyle=orthogonalEdgeStyle;rounded=0;orthogonalLoop=1;jettySize=auto;html=1;entryX=0.5;entryY=0;entryDx=0;entryDy=0;" edge="1" parent="1" source="-ujorZfPfKvrBxWsnz2l-56" target="KyfEQ4CnolOL-9VV9dGR-70">
          <mxGeometry relative="1" as="geometry" />
        </mxCell>
        <mxCell id="KyfEQ4CnolOL-9VV9dGR-93" style="edgeStyle=orthogonalEdgeStyle;rounded=0;orthogonalLoop=1;jettySize=auto;html=1;entryX=0.5;entryY=0;entryDx=0;entryDy=0;" edge="1" parent="1" source="-ujorZfPfKvrBxWsnz2l-27" target="KyfEQ4CnolOL-9VV9dGR-70">
          <mxGeometry relative="1" as="geometry" />
        </mxCell>
        <mxCell id="KyfEQ4CnolOL-9VV9dGR-94" style="edgeStyle=orthogonalEdgeStyle;rounded=0;orthogonalLoop=1;jettySize=auto;html=1;entryX=1;entryY=0.5;entryDx=0;entryDy=0;" edge="1" parent="1" source="KyfEQ4CnolOL-9VV9dGR-19" target="KyfEQ4CnolOL-9VV9dGR-74">
          <mxGeometry relative="1" as="geometry">
            <Array as="points">
              <mxPoint x="1320" y="560" />
            </Array>
          </mxGeometry>
        </mxCell>
        <mxCell id="KyfEQ4CnolOL-9VV9dGR-133" value="No" style="edgeLabel;html=1;align=center;verticalAlign=middle;resizable=0;points=[];" vertex="1" connectable="0" parent="KyfEQ4CnolOL-9VV9dGR-94">
          <mxGeometry x="-0.9836" y="-2" relative="1" as="geometry">
            <mxPoint as="offset" />
          </mxGeometry>
        </mxCell>
        <mxCell id="KyfEQ4CnolOL-9VV9dGR-97" style="edgeStyle=orthogonalEdgeStyle;rounded=0;orthogonalLoop=1;jettySize=auto;html=1;entryX=0;entryY=0.5;entryDx=0;entryDy=0;" edge="1" parent="1" source="KyfEQ4CnolOL-9VV9dGR-16" target="KyfEQ4CnolOL-9VV9dGR-19">
          <mxGeometry relative="1" as="geometry" />
        </mxCell>
        <mxCell id="KyfEQ4CnolOL-9VV9dGR-131" value="No" style="edgeLabel;html=1;align=center;verticalAlign=middle;resizable=0;points=[];" vertex="1" connectable="0" parent="KyfEQ4CnolOL-9VV9dGR-97">
          <mxGeometry x="-0.3622" y="-1" relative="1" as="geometry">
            <mxPoint as="offset" />
          </mxGeometry>
        </mxCell>
        <mxCell id="KyfEQ4CnolOL-9VV9dGR-98" style="edgeStyle=orthogonalEdgeStyle;rounded=0;orthogonalLoop=1;jettySize=auto;html=1;entryX=0.5;entryY=0;entryDx=0;entryDy=0;" edge="1" parent="1" source="KyfEQ4CnolOL-9VV9dGR-51" target="KyfEQ4CnolOL-9VV9dGR-16">
          <mxGeometry relative="1" as="geometry">
            <Array as="points">
              <mxPoint x="1120" y="340" />
              <mxPoint x="1120" y="340" />
            </Array>
          </mxGeometry>
        </mxCell>
        <mxCell id="KyfEQ4CnolOL-9VV9dGR-99" style="edgeStyle=orthogonalEdgeStyle;rounded=0;orthogonalLoop=1;jettySize=auto;html=1;entryX=0.5;entryY=0;entryDx=0;entryDy=0;" edge="1" parent="1" source="KyfEQ4CnolOL-9VV9dGR-55" target="KyfEQ4CnolOL-9VV9dGR-19">
          <mxGeometry relative="1" as="geometry" />
        </mxCell>
        <mxCell id="KyfEQ4CnolOL-9VV9dGR-102" style="edgeStyle=orthogonalEdgeStyle;rounded=0;orthogonalLoop=1;jettySize=auto;html=1;entryX=0.5;entryY=0;entryDx=0;entryDy=0;" edge="1" parent="1" source="KyfEQ4CnolOL-9VV9dGR-28" target="KyfEQ4CnolOL-9VV9dGR-60">
          <mxGeometry relative="1" as="geometry">
            <mxPoint x="340" y="290" as="targetPoint" />
          </mxGeometry>
        </mxCell>
        <mxCell id="KyfEQ4CnolOL-9VV9dGR-125" value="Yes" style="edgeLabel;html=1;align=center;verticalAlign=middle;resizable=0;points=[];" vertex="1" connectable="0" parent="KyfEQ4CnolOL-9VV9dGR-102">
          <mxGeometry x="-0.3983" y="-2" relative="1" as="geometry">
            <mxPoint as="offset" />
          </mxGeometry>
        </mxCell>
        <mxCell id="KyfEQ4CnolOL-9VV9dGR-106" style="edgeStyle=orthogonalEdgeStyle;rounded=0;orthogonalLoop=1;jettySize=auto;html=1;entryX=0.5;entryY=0;entryDx=0;entryDy=0;" edge="1" parent="1" source="KyfEQ4CnolOL-9VV9dGR-31" target="KyfEQ4CnolOL-9VV9dGR-70">
          <mxGeometry relative="1" as="geometry">
            <Array as="points">
              <mxPoint x="130" y="500" />
              <mxPoint x="1471" y="500" />
            </Array>
          </mxGeometry>
        </mxCell>
        <mxCell id="KyfEQ4CnolOL-9VV9dGR-124" value="Yes" style="edgeLabel;html=1;align=center;verticalAlign=middle;resizable=0;points=[];" vertex="1" connectable="0" parent="KyfEQ4CnolOL-9VV9dGR-106">
          <mxGeometry x="-0.969" relative="1" as="geometry">
            <mxPoint as="offset" />
          </mxGeometry>
        </mxCell>
        <mxCell id="KyfEQ4CnolOL-9VV9dGR-101" style="edgeStyle=orthogonalEdgeStyle;rounded=0;orthogonalLoop=1;jettySize=auto;html=1;entryX=0.5;entryY=0;entryDx=0;entryDy=0;" edge="1" parent="1" source="KyfEQ4CnolOL-9VV9dGR-60" target="KyfEQ4CnolOL-9VV9dGR-70">
          <mxGeometry relative="1" as="geometry">
            <mxPoint x="750" y="410" as="targetPoint" />
            <Array as="points">
              <mxPoint x="340" y="500" />
              <mxPoint x="1471" y="500" />
            </Array>
          </mxGeometry>
        </mxCell>
        <mxCell id="KyfEQ4CnolOL-9VV9dGR-129" value="Yes" style="edgeLabel;html=1;align=center;verticalAlign=middle;resizable=0;points=[];" vertex="1" connectable="0" parent="KyfEQ4CnolOL-9VV9dGR-101">
          <mxGeometry x="-0.9579" relative="1" as="geometry">
            <mxPoint as="offset" />
          </mxGeometry>
        </mxCell>
        <mxCell id="KyfEQ4CnolOL-9VV9dGR-107" style="edgeStyle=orthogonalEdgeStyle;rounded=0;orthogonalLoop=1;jettySize=auto;html=1;entryX=0.5;entryY=0;entryDx=0;entryDy=0;" edge="1" parent="1" source="KyfEQ4CnolOL-9VV9dGR-25" target="KyfEQ4CnolOL-9VV9dGR-70">
          <mxGeometry relative="1" as="geometry">
            <Array as="points">
              <mxPoint x="530" y="500" />
              <mxPoint x="1471" y="500" />
            </Array>
          </mxGeometry>
        </mxCell>
        <mxCell id="KyfEQ4CnolOL-9VV9dGR-127" value="Yes&amp;nbsp;" style="edgeLabel;html=1;align=center;verticalAlign=middle;resizable=0;points=[];" vertex="1" connectable="0" parent="KyfEQ4CnolOL-9VV9dGR-107">
          <mxGeometry x="-0.9505" y="-1" relative="1" as="geometry">
            <mxPoint as="offset" />
          </mxGeometry>
        </mxCell>
        <mxCell id="KyfEQ4CnolOL-9VV9dGR-108" style="edgeStyle=orthogonalEdgeStyle;rounded=0;orthogonalLoop=1;jettySize=auto;html=1;entryX=1;entryY=0.5;entryDx=0;entryDy=0;" edge="1" parent="1" source="KyfEQ4CnolOL-9VV9dGR-22" target="KyfEQ4CnolOL-9VV9dGR-74">
          <mxGeometry relative="1" as="geometry">
            <Array as="points">
              <mxPoint x="750" y="560" />
            </Array>
          </mxGeometry>
        </mxCell>
        <mxCell id="KyfEQ4CnolOL-9VV9dGR-128" value="No&amp;nbsp;" style="edgeLabel;html=1;align=center;verticalAlign=middle;resizable=0;points=[];" vertex="1" connectable="0" parent="KyfEQ4CnolOL-9VV9dGR-108">
          <mxGeometry x="-0.9416" y="1" relative="1" as="geometry">
            <mxPoint as="offset" />
          </mxGeometry>
        </mxCell>
        <mxCell id="KyfEQ4CnolOL-9VV9dGR-110" style="edgeStyle=orthogonalEdgeStyle;rounded=0;orthogonalLoop=1;jettySize=auto;html=1;entryX=0.5;entryY=0;entryDx=0;entryDy=0;" edge="1" parent="1" target="KyfEQ4CnolOL-9VV9dGR-34">
          <mxGeometry relative="1" as="geometry">
            <mxPoint x="455" y="-80" as="sourcePoint" />
            <Array as="points">
              <mxPoint x="455" y="-50" />
              <mxPoint x="455" y="-50" />
            </Array>
          </mxGeometry>
        </mxCell>
        <mxCell id="-ujorZfPfKvrBxWsnz2l-33" style="edgeStyle=orthogonalEdgeStyle;rounded=0;orthogonalLoop=1;jettySize=auto;html=1;entryX=0.533;entryY=0.028;entryDx=0;entryDy=0;entryPerimeter=0;" parent="1" source="-ujorZfPfKvrBxWsnz2l-13" edge="1" target="-ujorZfPfKvrBxWsnz2l-24">
          <mxGeometry relative="1" as="geometry">
            <mxPoint x="290" y="-360" as="targetPoint" />
            <Array as="points">
              <mxPoint x="199" y="-380" />
              <mxPoint x="294" y="-380" />
            </Array>
          </mxGeometry>
        </mxCell>
        <mxCell id="KyfEQ4CnolOL-9VV9dGR-95" style="edgeStyle=orthogonalEdgeStyle;rounded=0;orthogonalLoop=1;jettySize=auto;html=1;" edge="1" parent="1" source="KyfEQ4CnolOL-9VV9dGR-16">
          <mxGeometry relative="1" as="geometry">
            <mxPoint x="1471" y="530" as="targetPoint" />
            <Array as="points">
              <mxPoint x="1120" y="500" />
              <mxPoint x="1471" y="500" />
            </Array>
          </mxGeometry>
        </mxCell>
        <mxCell id="KyfEQ4CnolOL-9VV9dGR-134" value="Yes" style="edgeLabel;html=1;align=center;verticalAlign=middle;resizable=0;points=[];" vertex="1" connectable="0" parent="KyfEQ4CnolOL-9VV9dGR-95">
          <mxGeometry x="-0.9295" relative="1" as="geometry">
            <mxPoint as="offset" />
          </mxGeometry>
        </mxCell>
        <mxCell id="KyfEQ4CnolOL-9VV9dGR-145" value="&lt;font style=&quot;font-size: 21px;&quot;&gt;LEGEND&lt;/font&gt;" style="text;html=1;align=center;verticalAlign=middle;resizable=0;points=[];autosize=1;strokeColor=none;fillColor=none;" vertex="1" parent="1">
          <mxGeometry x="1095" y="-990" width="110" height="40" as="geometry" />
        </mxCell>
        <mxCell id="KyfEQ4CnolOL-9VV9dGR-146" value="" style="endArrow=none;html=1;rounded=0;" edge="1" parent="1">
          <mxGeometry width="50" height="50" relative="1" as="geometry">
            <mxPoint x="1340" y="-950.5600000000001" as="sourcePoint" />
            <mxPoint x="960" y="-950.5600000000001" as="targetPoint" />
            <Array as="points">
              <mxPoint x="1340" y="-950.5600000000001" />
            </Array>
          </mxGeometry>
        </mxCell>
        <mxCell id="KyfEQ4CnolOL-9VV9dGR-147" value="" style="group" vertex="1" connectable="0" parent="1">
          <mxGeometry x="1260" y="-910" width="130" height="40" as="geometry" />
        </mxCell>
        <mxCell id="KyfEQ4CnolOL-9VV9dGR-148" value="" style="rounded=0;whiteSpace=wrap;html=1;strokeColor=#047d7e;fillColor=#047d7e;" vertex="1" parent="KyfEQ4CnolOL-9VV9dGR-147">
          <mxGeometry width="113.75" height="39.99698947391057" as="geometry" />
        </mxCell>
        <mxCell id="KyfEQ4CnolOL-9VV9dGR-150" value="User Preference &amp;amp; Value" style="text;html=1;align=center;verticalAlign=middle;whiteSpace=wrap;rounded=0;fontColor=#ffffff;" vertex="1" parent="KyfEQ4CnolOL-9VV9dGR-147">
          <mxGeometry x="10" y="9.003010526089383" width="91.87" height="19.35" as="geometry" />
        </mxCell>
      </root>
    </mxGraphModel>
  </diagram>
</mxfile>
